<svg width="122" height="38" viewBox="0 0 122 38" fill="none" xmlns="http://www.w3.org/2000/svg">
<path d="M21.6836 33.167V37H3.91016V33.167H21.6836ZM4.83789 1.45312V37H0.125977V1.45312H4.83789ZM52.8359 18.1035V20.3496C52.8359 23.0189 52.5023 25.4115 51.835 27.5273C51.1676 29.6432 50.2074 31.4417 48.9541 32.9229C47.7008 34.404 46.1953 35.5352 44.4375 36.3164C42.696 37.0977 40.7428 37.4883 38.5781 37.4883C36.4785 37.4883 34.5498 37.0977 32.792 36.3164C31.0505 35.5352 29.5368 34.404 28.251 32.9229C26.9814 31.4417 25.9967 29.6432 25.2969 27.5273C24.597 25.4115 24.2471 23.0189 24.2471 20.3496V18.1035C24.2471 15.4342 24.5889 13.0498 25.2725 10.9502C25.9723 8.83431 26.957 7.03581 28.2266 5.55469C29.4961 4.05729 31.0016 2.91797 32.7432 2.13672C34.501 1.35547 36.4297 0.964844 38.5293 0.964844C40.694 0.964844 42.6471 1.35547 44.3887 2.13672C46.1465 2.91797 47.652 4.05729 48.9053 5.55469C50.1748 7.03581 51.1432 8.83431 51.8105 10.9502C52.4941 13.0498 52.8359 15.4342 52.8359 18.1035ZM48.1729 20.3496V18.0547C48.1729 15.9388 47.9531 14.0671 47.5137 12.4395C47.0905 10.8118 46.4639 9.44466 45.6338 8.33789C44.8037 7.23112 43.7865 6.3929 42.582 5.82324C41.3939 5.25358 40.043 4.96875 38.5293 4.96875C37.0645 4.96875 35.738 5.25358 34.5498 5.82324C33.3779 6.3929 32.3688 7.23112 31.5225 8.33789C30.6924 9.44466 30.0495 10.8118 29.5938 12.4395C29.138 14.0671 28.9102 15.9388 28.9102 18.0547V20.3496C28.9102 22.4818 29.138 24.3698 29.5938 26.0137C30.0495 27.6413 30.7005 29.0166 31.5469 30.1396C32.4095 31.2464 33.4268 32.0846 34.5986 32.6543C35.7868 33.224 37.1133 33.5088 38.5781 33.5088C40.1081 33.5088 41.4671 33.224 42.6553 32.6543C43.8434 32.0846 44.8444 31.2464 45.6582 30.1396C46.4883 29.0166 47.1149 27.6413 47.5381 26.0137C47.9613 24.3698 48.1729 22.4818 48.1729 20.3496ZM86.1611 19.2998V32.3125C85.7217 32.9635 85.0218 33.696 84.0615 34.5098C83.1012 35.3073 81.7747 36.0072 80.082 36.6094C78.4056 37.1953 76.2409 37.4883 73.5879 37.4883C71.4232 37.4883 69.4294 37.1139 67.6064 36.3652C65.7998 35.6003 64.2292 34.4935 62.8945 33.0449C61.5762 31.5801 60.5508 29.806 59.8184 27.7227C59.1022 25.623 58.7441 23.2467 58.7441 20.5938V17.835C58.7441 15.182 59.0534 12.8138 59.6719 10.7305C60.3066 8.64714 61.2344 6.88118 62.4551 5.43262C63.6758 3.96777 65.1732 2.861 66.9473 2.1123C68.7214 1.34733 70.7559 0.964844 73.0508 0.964844C75.7689 0.964844 78.0394 1.43685 79.8623 2.38086C81.7015 3.30859 83.1338 4.5944 84.1592 6.23828C85.2008 7.88216 85.8682 9.75391 86.1611 11.8535H81.4492C81.2376 10.5677 80.8145 9.39583 80.1797 8.33789C79.5612 7.27995 78.6742 6.43359 77.5186 5.79883C76.363 5.14779 74.8737 4.82227 73.0508 4.82227C71.4069 4.82227 69.9827 5.12337 68.7783 5.72559C67.5739 6.3278 66.5811 7.19043 65.7998 8.31348C65.0186 9.43652 64.4326 10.7956 64.042 12.3906C63.6676 13.9857 63.4805 15.7842 63.4805 17.7861V20.5938C63.4805 22.6445 63.7165 24.4756 64.1885 26.0869C64.6768 27.6982 65.3685 29.0736 66.2637 30.2129C67.1589 31.3359 68.2249 32.1904 69.4619 32.7764C70.7152 33.3623 72.0986 33.6553 73.6123 33.6553C75.2887 33.6553 76.6478 33.5169 77.6895 33.2402C78.7311 32.9473 79.5449 32.6055 80.1309 32.2148C80.7168 31.8079 81.1644 31.4255 81.4736 31.0674V23.1084H73.2461V19.2998H86.1611ZM121.342 18.1035V20.3496C121.342 23.0189 121.008 25.4115 120.341 27.5273C119.674 29.6432 118.713 31.4417 117.46 32.9229C116.207 34.404 114.701 35.5352 112.943 36.3164C111.202 37.0977 109.249 37.4883 107.084 37.4883C104.984 37.4883 103.056 37.0977 101.298 36.3164C99.5563 35.5352 98.0426 34.404 96.7568 32.9229C95.4873 31.4417 94.5026 29.6432 93.8027 27.5273C93.1029 25.4115 92.7529 23.0189 92.7529 20.3496V18.1035C92.7529 15.4342 93.0947 13.0498 93.7783 10.9502C94.4782 8.83431 95.4629 7.03581 96.7324 5.55469C98.002 4.05729 99.5075 2.91797 101.249 2.13672C103.007 1.35547 104.936 0.964844 107.035 0.964844C109.2 0.964844 111.153 1.35547 112.895 2.13672C114.652 2.91797 116.158 4.05729 117.411 5.55469C118.681 7.03581 119.649 8.83431 120.316 10.9502C121 13.0498 121.342 15.4342 121.342 18.1035ZM116.679 20.3496V18.0547C116.679 15.9388 116.459 14.0671 116.02 12.4395C115.596 10.8118 114.97 9.44466 114.14 8.33789C113.31 7.23112 112.292 6.3929 111.088 5.82324C109.9 5.25358 108.549 4.96875 107.035 4.96875C105.57 4.96875 104.244 5.25358 103.056 5.82324C101.884 6.3929 100.875 7.23112 100.028 8.33789C99.1982 9.44466 98.5553 10.8118 98.0996 12.4395C97.6439 14.0671 97.416 15.9388 97.416 18.0547V20.3496C97.416 22.4818 97.6439 24.3698 98.0996 26.0137C98.5553 27.6413 99.2064 29.0166 100.053 30.1396C100.915 31.2464 101.933 32.0846 103.104 32.6543C104.293 33.224 105.619 33.5088 107.084 33.5088C108.614 33.5088 109.973 33.224 111.161 32.6543C112.349 32.0846 113.35 31.2464 114.164 30.1396C114.994 29.0166 115.621 27.6413 116.044 26.0137C116.467 24.3698 116.679 22.4818 116.679 20.3496Z" fill="black"/>
</svg>
